<svg width="52" height="54" viewBox="0 0 52 54" fill="none" xmlns="http://www.w3.org/2000/svg">
<g filter="url(#filter0_d_1576_13254)">
<rect x="3" width="44" height="44" rx="22" fill="#1E318A" shape-rendering="crispEdges"/>
<rect x="3.5" y="0.5" width="43" height="43" rx="21.5" stroke="#1E318A" shape-rendering="crispEdges"/>
<mask id="path-3-inside-1_1576_13254" fill="white">
<path d="M34 22C34 22.1989 33.921 22.3897 33.7803 22.5303C33.6397 22.671 33.4489 22.75 33.25 22.75H25.75V30.25C25.75 30.4489 25.671 30.6397 25.5303 30.7803C25.3897 30.921 25.1989 31 25 31C24.8011 31 24.6103 30.921 24.4697 30.7803C24.329 30.6397 24.25 30.4489 24.25 30.25V22.75H16.75C16.5511 22.75 16.3603 22.671 16.2197 22.5303C16.079 22.3897 16 22.1989 16 22C16 21.8011 16.079 21.6103 16.2197 21.4697C16.3603 21.329 16.5511 21.25 16.75 21.25H24.25V13.75C24.25 13.5511 24.329 13.3603 24.4697 13.2197C24.6103 13.079 24.8011 13 25 13C25.1989 13 25.3897 13.079 25.5303 13.2197C25.671 13.3603 25.75 13.5511 25.75 13.75V21.25H33.25C33.4489 21.25 33.6397 21.329 33.7803 21.4697C33.921 21.6103 34 21.8011 34 22Z"/>
</mask>
<path d="M34 22C34 22.1989 33.921 22.3897 33.7803 22.5303C33.6397 22.671 33.4489 22.75 33.25 22.75H25.75V30.25C25.75 30.4489 25.671 30.6397 25.5303 30.7803C25.3897 30.921 25.1989 31 25 31C24.8011 31 24.6103 30.921 24.4697 30.7803C24.329 30.6397 24.25 30.4489 24.25 30.25V22.75H16.75C16.5511 22.75 16.3603 22.671 16.2197 22.5303C16.079 22.3897 16 22.1989 16 22C16 21.8011 16.079 21.6103 16.2197 21.4697C16.3603 21.329 16.5511 21.25 16.75 21.25H24.25V13.75C24.25 13.5511 24.329 13.3603 24.4697 13.2197C24.6103 13.079 24.8011 13 25 13C25.1989 13 25.3897 13.079 25.5303 13.2197C25.671 13.3603 25.75 13.5511 25.75 13.75V21.25H33.25C33.4489 21.25 33.6397 21.329 33.7803 21.4697C33.921 21.6103 34 21.8011 34 22Z" fill="white"/>
<path d="M25.75 22.75V20.75H23.75V22.75H25.75ZM24.25 22.75H26.25V20.75H24.25V22.75ZM24.25 21.25V23.25H26.25V21.25H24.25ZM25 13V15V13ZM25.75 21.25H23.75V23.25H25.75V21.25ZM34 22H32C32 21.6685 32.1317 21.3505 32.3661 21.1161L33.7803 22.5303L35.1945 23.9445C35.7103 23.4288 36 22.7293 36 22H34ZM33.7803 22.5303L32.3661 21.1161C32.6005 20.8817 32.9185 20.75 33.25 20.75V22.75V24.75C33.9793 24.75 34.6788 24.4603 35.1945 23.9445L33.7803 22.5303ZM33.25 22.75V20.75H25.75V22.75V24.75H33.25V22.75ZM25.75 22.75H23.75V30.25H25.75H27.75V22.75H25.75ZM25.75 30.25H23.75C23.75 29.9185 23.8817 29.6005 24.1161 29.3661L25.5303 30.7803L26.9445 32.1945C27.4603 31.6788 27.75 30.9793 27.75 30.25H25.75ZM25.5303 30.7803L24.1161 29.3661C24.3505 29.1317 24.6685 29 25 29V31V33C25.7293 33 26.4288 32.7103 26.9445 32.1945L25.5303 30.7803ZM25 31V29C25.3315 29 25.6495 29.1317 25.8839 29.3661L24.4697 30.7803L23.0555 32.1945C23.5712 32.7103 24.2707 33 25 33V31ZM24.4697 30.7803L25.8839 29.3661C26.1183 29.6005 26.25 29.9185 26.25 30.25H24.25H22.25C22.25 30.9793 22.5397 31.6788 23.0555 32.1945L24.4697 30.7803ZM24.25 30.25H26.25V22.75H24.25H22.25V30.25H24.25ZM24.25 22.75V20.75H16.75V22.75V24.75H24.25V22.75ZM16.75 22.75V20.75C17.0815 20.75 17.3995 20.8817 17.6339 21.1161L16.2197 22.5303L14.8055 23.9445C15.3212 24.4603 16.0207 24.75 16.75 24.75V22.75ZM16.2197 22.5303L17.6339 21.1161C17.8683 21.3505 18 21.6685 18 22H16H14C14 22.7293 14.2897 23.4288 14.8055 23.9445L16.2197 22.5303ZM16 22H18C18 22.3315 17.8683 22.6495 17.6339 22.8839L16.2197 21.4697L14.8055 20.0555C14.2897 20.5712 14 21.2707 14 22H16ZM16.2197 21.4697L17.6339 22.8839C17.3995 23.1183 17.0815 23.25 16.75 23.25V21.25V19.25C16.0207 19.25 15.3212 19.5397 14.8055 20.0555L16.2197 21.4697ZM16.75 21.25V23.25H24.25V21.25V19.25H16.75V21.25ZM24.25 21.25H26.25V13.75H24.25H22.25V21.25H24.25ZM24.25 13.75H26.25C26.25 14.0815 26.1183 14.3995 25.8839 14.6339L24.4697 13.2197L23.0555 11.8055C22.5397 12.3212 22.25 13.0207 22.25 13.75H24.25ZM24.4697 13.2197L25.8839 14.6339C25.6495 14.8683 25.3315 15 25 15V13V11C24.2707 11 23.5712 11.2897 23.0555 11.8055L24.4697 13.2197ZM25 13V15C24.6685 15 24.3505 14.8683 24.1161 14.6339L25.5303 13.2197L26.9445 11.8055C26.4288 11.2897 25.7293 11 25 11V13ZM25.5303 13.2197L24.1161 14.6339C23.8817 14.3995 23.75 14.0815 23.75 13.75H25.75H27.75C27.75 13.0207 27.4603 12.3212 26.9445 11.8055L25.5303 13.2197ZM25.75 13.75H23.75V21.25H25.75H27.75V13.75H25.75ZM25.75 21.25V23.25H33.25V21.25V19.25H25.75V21.25ZM33.25 21.25V23.25C32.9185 23.25 32.6005 23.1183 32.3661 22.8839L33.7803 21.4697L35.1945 20.0555C34.6788 19.5397 33.9793 19.25 33.25 19.25V21.25ZM33.7803 21.4697L32.3661 22.8839C32.1317 22.6495 32 22.3315 32 22H34H36C36 21.2707 35.7103 20.5712 35.1945 20.0555L33.7803 21.4697Z" fill="white" mask="url(#path-3-inside-1_1576_13254)"/>
</g>
<defs>
<filter id="filter0_d_1576_13254" x="0" y="0" width="52" height="54" filterUnits="userSpaceOnUse" color-interpolation-filters="sRGB">
<feFlood flood-opacity="0" result="BackgroundImageFix"/>
<feColorMatrix in="SourceAlpha" type="matrix" values="0 0 0 0 0 0 0 0 0 0 0 0 0 0 0 0 0 0 127 0" result="hardAlpha"/>
<feOffset dx="1" dy="6"/>
<feGaussianBlur stdDeviation="2"/>
<feComposite in2="hardAlpha" operator="out"/>
<feColorMatrix type="matrix" values="0 0 0 0 0 0 0 0 0 0 0 0 0 0 0 0 0 0 0.16 0"/>
<feBlend mode="normal" in2="BackgroundImageFix" result="effect1_dropShadow_1576_13254"/>
<feBlend mode="normal" in="SourceGraphic" in2="effect1_dropShadow_1576_13254" result="shape"/>
</filter>
</defs>
</svg>
